<svg width="36" height="36" viewBox="0 0 36 36" fill="none" xmlns="http://www.w3.org/2000/svg">
    <mask id="path-1-inside-1_430_290" fill="white">
        <path d="M34.2376 23.6342L30.0519 21.0559L34.2376 18.4775C34.4003 18.3773 34.4999 18.196 34.4999 18.0003C34.4999 17.8046 34.4003 17.6232 34.2376 17.523L30.0519 14.9447L34.2376 12.3663C34.4926 12.2092 34.5761 11.8682 34.4241 11.6046C34.3785 11.5253 34.3143 11.459 34.2376 11.4118L18.2752 1.57833C18.1056 1.47389 17.8944 1.47389 17.7249 1.57833L1.76243 11.4118C1.50747 11.5689 1.42396 11.9099 1.57593 12.1735C1.62161 12.2528 1.68577 12.3191 1.76243 12.3663L5.94813 14.9447L1.76236 17.523C1.5074 17.6801 1.4239 18.0211 1.57586 18.2847C1.62155 18.364 1.6857 18.4303 1.76236 18.4775L5.94806 21.0559L1.76236 23.6342C1.5074 23.7913 1.4239 24.1323 1.57586 24.3959C1.62155 24.4752 1.6857 24.5415 1.76236 24.5887L17.7248 34.4222C17.8945 34.5259 18.1054 34.5259 18.2751 34.4222L34.2376 24.5887C34.4925 24.4316 34.576 24.0906 34.4241 23.827C34.3784 23.7478 34.3143 23.6815 34.2376 23.6342ZM3.08719 11.8891L18 2.70224L32.9127 11.8891L18 21.0759L3.08719 11.8891ZM3.08719 18.0003L6.99771 15.5919L17.7248 22.2031C17.8944 22.3076 18.1056 22.3076 18.2751 22.2031L29.0022 15.5919L32.9127 18.0003L18 27.1871L3.08719 18.0003ZM18 33.2983L3.08719 24.1115L6.99771 21.7031L17.7248 28.3143C17.8944 28.4188 18.1056 28.4188 18.2751 28.3143L29.0022 21.7031L32.9127 24.1115L18 33.2983Z"/>
    </mask>
    <path d="M34.2376 23.6342L35.2878 21.9321L35.2866 21.9314L34.2376 23.6342ZM30.0519 21.0559L29.003 19.353L26.2386 21.0559L29.003 22.7587L30.0519 21.0559ZM34.2376 18.4775L35.2866 20.1803L35.2867 20.1803L34.2376 18.4775ZM34.2376 17.523L35.2867 15.8203L35.2866 15.8202L34.2376 17.523ZM30.0519 14.9447L29.003 13.2418L26.2386 14.9447L29.003 16.6475L30.0519 14.9447ZM34.2376 12.3663L35.2866 14.0691L35.2868 14.069L34.2376 12.3663ZM34.4241 11.6046L32.6911 12.6029L32.6914 12.6035L34.4241 11.6046ZM34.2376 11.4118L35.2867 9.70901L35.2866 9.709L34.2376 11.4118ZM18.2752 1.57833L19.3242 -0.124484L19.3241 -0.124547L18.2752 1.57833ZM17.7249 1.57833L18.7739 3.28115L18.7741 3.28103L17.7249 1.57833ZM1.76243 11.4118L0.713422 9.709L0.71331 9.70907L1.76243 11.4118ZM1.57593 12.1735L3.30896 11.1752L3.30864 11.1747L1.57593 12.1735ZM1.76243 12.3663L0.713411 14.0691L0.713477 14.0691L1.76243 12.3663ZM5.94813 14.9447L6.99707 16.6475L9.76149 14.9447L6.99708 13.2418L5.94813 14.9447ZM1.76236 17.523L0.713421 15.8202L0.713243 15.8203L1.76236 17.523ZM1.57586 18.2847L3.3089 17.2864L3.30857 17.2859L1.57586 18.2847ZM1.76236 18.4775L0.713343 20.1803L0.713409 20.1803L1.76236 18.4775ZM5.94806 21.0559L6.99701 22.7587L9.7614 21.0559L6.99701 19.353L5.94806 21.0559ZM1.76236 23.6342L0.71341 21.9314L0.713243 21.9315L1.76236 23.6342ZM1.57586 24.3959L3.3089 23.3976L3.30857 23.3971L1.57586 24.3959ZM1.76236 24.5887L0.713343 26.2915L0.713355 26.2915L1.76236 24.5887ZM17.7248 34.4222L16.6758 36.125L16.6816 36.1285L17.7248 34.4222ZM18.2751 34.4222L19.3184 36.1286L19.3241 36.125L18.2751 34.4222ZM34.2376 24.5887L35.2866 26.2915L35.2867 26.2914L34.2376 24.5887ZM34.4241 23.827L36.1568 22.8282L36.1567 22.8281L34.4241 23.827ZM3.08719 11.8891L2.03819 10.1862L-0.725971 11.8891L2.03819 13.5919L3.08719 11.8891ZM18 2.70224L19.049 0.99942L18 0.353198L16.951 0.99942L18 2.70224ZM32.9127 11.8891L33.9617 13.5919L36.7259 11.8891L33.9617 10.1862L32.9127 11.8891ZM18 21.0759L16.951 22.7787L18 23.4249L19.049 22.7787L18 21.0759ZM3.08719 18.0003L2.03839 16.2973L-0.726346 18L2.03819 19.7031L3.08719 18.0003ZM6.99771 15.5919L8.04705 13.8893L6.99809 13.2428L5.94892 13.8889L6.99771 15.5919ZM17.7248 22.2031L16.6755 23.9057L16.6759 23.906L17.7248 22.2031ZM18.2751 22.2031L19.324 23.906L19.3245 23.9057L18.2751 22.2031ZM29.0022 15.5919L30.051 13.8889L29.0018 13.2428L27.9529 13.8893L29.0022 15.5919ZM32.9127 18.0003L33.9617 19.7031L36.7263 18L33.9615 16.2973L32.9127 18.0003ZM18 27.1871L16.951 28.8899L18 29.5361L19.049 28.8899L18 27.1871ZM18 33.2983L16.951 35.0011L18 35.6473L19.049 35.0011L18 33.2983ZM3.08719 24.1115L2.03839 22.4085L-0.726346 24.1112L2.03819 25.8143L3.08719 24.1115ZM6.99771 21.7031L8.04705 20.0005L6.99809 19.354L5.94892 20.0001L6.99771 21.7031ZM17.7248 28.3143L16.6755 30.0169L16.6759 30.0172L17.7248 28.3143ZM18.2751 28.3143L19.324 30.0172L19.3245 30.0169L18.2751 28.3143ZM29.0022 21.7031L30.051 20.0001L29.0018 19.354L27.9529 20.0005L29.0022 21.7031ZM32.9127 24.1115L33.9617 25.8143L36.7263 24.1112L33.9615 22.4085L32.9127 24.1115ZM35.2866 21.9314L31.1009 19.353L29.003 22.7587L33.1887 25.3371L35.2866 21.9314ZM31.1009 22.7587L35.2866 20.1803L33.1887 16.7746L29.003 19.353L31.1009 22.7587ZM35.2867 20.1803C36.058 19.7051 36.4999 18.8692 36.4999 18.0003H32.4999C32.4999 17.5227 32.7426 17.0495 33.1885 16.7747L35.2867 20.1803ZM36.4999 18.0003C36.4999 17.1313 36.058 16.2954 35.2867 15.8203L33.1885 19.2258C32.7426 18.951 32.4999 18.4778 32.4999 18.0003H36.4999ZM35.2866 15.8202L31.1009 13.2418L29.003 16.6475L33.1887 19.2259L35.2866 15.8202ZM31.1009 16.6475L35.2866 14.0691L33.1887 10.6634L29.003 13.2418L31.1009 16.6475ZM35.2868 14.069C36.487 13.3296 36.8348 11.7817 36.1568 10.6058L32.6914 12.6035C32.3175 11.9547 32.4982 11.0888 33.1885 10.6635L35.2868 14.069ZM36.1572 10.6063C35.9479 10.243 35.6502 9.93299 35.2867 9.70901L33.1886 13.1146C32.9784 12.9851 32.809 12.8076 32.6911 12.6029L36.1572 10.6063ZM35.2866 9.709L19.3242 -0.124484L17.2262 3.28115L33.1886 13.1146L35.2866 9.709ZM19.3241 -0.124547C18.5115 -0.625072 17.4886 -0.625291 16.6757 -0.124361L18.7741 3.28103C18.3001 3.57307 17.6998 3.57285 17.2263 3.28122L19.3241 -0.124547ZM16.6759 -0.124484L0.713422 9.709L2.81143 13.1146L18.7739 3.28115L16.6759 -0.124484ZM0.71331 9.70907C-0.486892 10.4486 -0.834688 11.9964 -0.156784 13.1724L3.30864 11.1747C3.68261 11.8234 3.50183 12.6893 2.81154 13.1146L0.71331 9.70907ZM-0.157106 13.1718C0.0521932 13.5351 0.349845 13.8451 0.713411 14.0691L2.81144 10.6635C3.0217 10.793 3.19103 10.9705 3.30896 11.1752L-0.157106 13.1718ZM0.713477 14.0691L4.89918 16.6475L6.99708 13.2418L2.81137 10.6634L0.713477 14.0691ZM4.89919 13.2418L0.713421 15.8202L2.8113 19.2259L6.99707 16.6475L4.89919 13.2418ZM0.713243 15.8203C-0.486959 16.5598 -0.834755 18.1076 -0.156852 19.2836L3.30857 17.2859C3.68255 17.9346 3.50176 18.8005 2.81147 19.2258L0.713243 15.8203ZM-0.157174 19.283C0.052126 19.6463 0.349778 19.9563 0.713343 20.1803L2.81137 16.7747C3.02163 16.9042 3.19096 17.0817 3.3089 17.2864L-0.157174 19.283ZM0.713409 20.1803L4.89911 22.7587L6.99701 19.353L2.81131 16.7746L0.713409 20.1803ZM4.89911 19.353L0.71341 21.9314L2.81131 25.3371L6.99701 22.7587L4.89911 19.353ZM0.713243 21.9315C-0.486958 22.671 -0.834756 24.2188 -0.156852 25.3948L3.30857 23.3971C3.68255 24.0458 3.50176 24.9117 2.81147 25.337L0.713243 21.9315ZM-0.157174 25.3942C0.052126 25.7576 0.349778 26.0675 0.713343 26.2915L2.81137 22.8859C3.02163 23.0154 3.19096 23.1929 3.3089 23.3976L-0.157174 25.3942ZM0.713355 26.2915L16.6758 36.125L18.7738 32.7194L2.81136 22.8859L0.713355 26.2915ZM16.6816 36.1285C17.4916 36.6238 18.5083 36.6238 19.3184 36.1285L17.2319 32.7158C17.7026 32.4281 18.2973 32.4281 18.768 32.7158L16.6816 36.1285ZM19.3241 36.125L35.2866 26.2915L33.1886 22.8859L17.2261 32.7194L19.3241 36.125ZM35.2867 26.2914C36.4869 25.552 36.8347 24.0041 36.1568 22.8282L32.6914 24.8259C32.3174 24.1771 32.4982 23.3113 33.1885 22.8859L35.2867 26.2914ZM36.1567 22.8281C35.9478 22.4658 35.6509 22.1562 35.2878 21.9321L33.1875 25.3364C32.9777 25.2069 32.8089 25.0298 32.6914 24.826L36.1567 22.8281ZM4.13619 13.5919L19.049 4.40506L16.951 0.99942L2.03819 10.1862L4.13619 13.5919ZM16.951 4.40506L31.8637 13.5919L33.9617 10.1862L19.049 0.99942L16.951 4.40506ZM31.8637 10.1862L16.951 19.373L19.049 22.7787L33.9617 13.5919L31.8637 10.1862ZM19.049 19.373L4.13619 10.1862L2.03819 13.5919L16.951 22.7787L19.049 19.373ZM4.13598 19.7032L8.04651 17.2948L5.94892 13.8889L2.03839 16.2973L4.13598 19.7032ZM5.94837 17.2945L16.6755 23.9057L18.7741 20.5005L8.04705 13.8893L5.94837 17.2945ZM16.6759 23.906C17.4886 24.4066 18.5113 24.4066 19.324 23.906L17.2262 20.5002C17.6998 20.2085 18.3001 20.2085 18.7737 20.5002L16.6759 23.906ZM19.3245 23.9057L30.0516 17.2945L27.9529 13.8893L17.2258 20.5005L19.3245 23.9057ZM27.9534 17.2948L31.864 19.7032L33.9615 16.2973L30.051 13.8889L27.9534 17.2948ZM31.8637 16.2974L16.951 25.4843L19.049 28.8899L33.9617 19.7031L31.8637 16.2974ZM19.049 25.4843L4.13619 16.2974L2.03819 19.7031L16.951 28.8899L19.049 25.4843ZM19.049 31.5955L4.13619 22.4086L2.03819 25.8143L16.951 35.0011L19.049 31.5955ZM4.13598 25.8144L8.04651 23.406L5.94892 20.0001L2.03839 22.4085L4.13598 25.8144ZM5.94837 23.4057L16.6755 30.0169L18.7741 26.6117L8.04705 20.0005L5.94837 23.4057ZM16.6759 30.0172C17.4886 30.5178 18.5113 30.5178 19.324 30.0172L17.2262 26.6114C17.6998 26.3197 18.3001 26.3197 18.7737 26.6114L16.6759 30.0172ZM19.3245 30.0169L30.0516 23.4057L27.9529 20.0005L17.2258 26.6117L19.3245 30.0169ZM27.9534 23.406L31.864 25.8144L33.9615 22.4085L30.051 20.0001L27.9534 23.406ZM31.8637 22.4086L16.951 31.5955L19.049 35.0011L33.9617 25.8143L31.8637 22.4086Z" fill="white" mask="url(#path-1-inside-1_430_290)"/>
</svg>
