<svg width="36" height="36" viewBox="0 0 36 36" fill="none" xmlns="http://www.w3.org/2000/svg">

    <!-- Original erster Pfad bleibt -->
    <path d="M21.6667 17.175C24.2333 17.175 26.25 15.36 26.25 13.05C26.25 10.74 24.2333 8.925 21.6667 8.925C19.1 8.925 17.0833 10.74 17.0833 13.05C17.0833 15.36 19.1 17.175 21.6667 17.175Z"
          fill="none" stroke="white" stroke-width="2"/>

    <!-- Erste Region vom zweiten Pfad -->
    <path d="M21.6667 1.5C28.8167 1.5 34.5 6.615 34.5 13.05C34.5 21.63 21.6667 34.5 21.6667 34.5C21.6667 34.5 8.83333 21.63 8.83333 13.05C8.83333 6.615 14.5167 1.5 21.6667 1.5Z"
          fill="none" stroke="white" stroke-width="2"/>

    <!-- Zweite Region separat -->
    <path d="M5.16667 13.05C5.16667 20.475 14.5167 30.705 16.1667 32.52L14.3333 34.5C14.3333 34.5 1.5 21.63 1.5 13.05C1.5 7.77 5.35 3.48 10.6667 1.995C7.36667 4.635 5.16667 8.595 5.16667 13.05Z"
          fill="white" stroke="white" stroke-width="2"/>

</svg>