<svg width="41" height="41" viewBox="0 0 41 41" fill="none" xmlns="http://www.w3.org/2000/svg">
    <path d="M27.2726 21.8062H21.1362C17.0453 21.8062 13.7735 27.2118 22.7726 27.2118C35.6897 27.2118 33.4106 33.449 26.0461 33.449C21.9348 33.449 23.5916 33.449 12.1362 33.449" stroke="white" stroke-width="2"/>
    <g clip-path="url(#clip0_333_905)">
        <path d="M30.5453 16.158C31.5055 16.158 32.2839 15.3668 32.2839 14.3908C32.2839 13.4147 31.5055 12.6235 30.5453 12.6235C29.585 12.6235 28.8066 13.4147 28.8066 14.3908C28.8066 15.3668 29.585 16.158 30.5453 16.158Z" stroke="white" stroke-width="2" stroke-linecap="round" stroke-linejoin="round"/>
        <path d="M30.5455 21.4597C32.8637 19.1034 35.1819 16.9935 35.1819 14.3908C35.1819 11.7881 33.1061 9.67822 30.5455 9.67822C27.9849 9.67822 25.9092 11.7881 25.9092 14.3908C25.9092 16.9935 28.2274 19.1034 30.5455 21.4597Z" stroke="white" stroke-width="2" stroke-linecap="round" stroke-linejoin="round"/>
    </g>
    <path d="M8.45446 28.6326C9.41471 28.6326 10.1931 27.8414 10.1931 26.8654C10.1931 25.8894 9.41471 25.0981 8.45446 25.0981C7.49421 25.0981 6.71582 25.8894 6.71582 26.8654C6.71582 27.8414 7.49421 28.6326 8.45446 28.6326Z" stroke="white" stroke-width="2" stroke-linecap="round" stroke-linejoin="round"/>
    <path d="M8.45472 33.9343C10.7729 31.578 13.0911 29.4681 13.0911 26.8654C13.0911 24.2627 11.0153 22.1528 8.45472 22.1528C5.89413 22.1528 3.81836 24.2627 3.81836 26.8654C3.81836 29.4681 6.13654 31.578 8.45472 33.9343Z" stroke="white" stroke-width="2" stroke-linecap="round" stroke-linejoin="round"/>
    <defs>
        <clipPath id="clip0_333_905">
            <rect width="13.9091" height="14.1378" fill="white" transform="translate(23.5908 8.5)"/>
        </clipPath>
    </defs>
</svg>
